<?xml version="1.0" encoding="UTF-8" standalone="no"?><!DOCTYPE svg PUBLIC "-//W3C//DTD SVG 1.1//EN" "http://www.w3.org/Graphics/SVG/1.1/DTD/svg11.dtd"><svg width="100%" height="100%" viewBox="0 0 1000 1000" version="1.1" xmlns="http://www.w3.org/2000/svg" xmlns:xlink="http://www.w3.org/1999/xlink" xml:space="preserve" xmlns:serif="http://www.serif.com/" style="fill-rule:evenodd;clip-rule:evenodd;stroke-linecap:round;stroke-linejoin:round;stroke-miterlimit:1.5;"><g id="Textmark" transform="matrix(209.871,0,0,209.871,923.609,788.637)"></g><text x="73.842px" y="788.637px" style="font-family:'Raleway-SemiBold', 'Raleway';font-weight:600;font-size:209.871px;fill:#29404e;">U<tspan x="229.986px " y="788.637px ">n</tspan>cloud</text><g id="Downloads"><rect x="544.448" y="417.084" width="31.863" height="31.863" style="fill:#72d650;"/><rect x="233.588" y="421.279" width="31.863" height="31.863" style="fill:#72d650;"/><rect x="459.153" y="335.303" width="31.863" height="31.863" style="fill:#72d650;"/><rect x="287.728" y="408.709" width="31.863" height="31.863" style="fill:none;stroke:#72d650;stroke-width:5px;"/><rect x="682.951" y="476.368" width="31.863" height="31.863" style="fill:none;stroke:#72d650;stroke-width:5px;"/><rect x="429.058" y="399.316" width="31.863" height="31.863" style="fill:none;stroke:#72d650;stroke-width:5px;"/><g><path d="M248.937,525.348l17.15,52.111" style="fill:none;"/><path d="M275.484,549.41l-11.276,22.339l-22.339,-11.275" style="fill:none;stroke:#72d650;stroke-width:8.5px;stroke-linejoin:miter;stroke-miterlimit:10;"/><path d="M248.937,525.348c-0,-0 10.82,32.875 15.271,46.401" style="fill:none;stroke:#72d650;stroke-width:8.5px;"/></g><g><path d="M330.1,479.525l29.774,60.851" style="fill:none;"/><path d="M365.35,511.306l-8.117,23.671l-23.671,-8.117" style="fill:none;stroke:#72d650;stroke-width:8.5px;stroke-linejoin:miter;stroke-miterlimit:10;"/><path d="M330.1,479.525c-0,-0 19.846,40.56 27.133,55.452" style="fill:none;stroke:#72d650;stroke-width:8.5px;"/></g><g><path d="M445.777,463.563l6.112,58.69" style="fill:none;"/><path d="M467.033,496.843l-15.766,19.432l-19.432,-15.767" style="fill:none;stroke:#72d650;stroke-width:8.5px;stroke-linejoin:miter;stroke-miterlimit:10;"/><path d="M445.777,463.563c0,0 3.934,37.772 5.49,52.712" style="fill:none;stroke:#72d650;stroke-width:8.5px;"/></g><g><path d="M669.428,499.716l-19.627,57.753" style="fill:none;"/><path d="M674.182,540.719l-22.447,11.06l-11.06,-22.447" style="fill:none;stroke:#72d650;stroke-width:8.5px;stroke-linejoin:miter;stroke-miterlimit:10;"/><path d="M669.428,499.716c0,-0 -12.743,37.496 -17.693,52.063" style="fill:none;stroke:#72d650;stroke-width:8.5px;"/></g><g><path d="M542.056,460.688l-4.046,61.196" style="fill:none;"/><path d="M557.23,499.398l-18.823,16.489l-16.489,-18.823" style="fill:none;stroke:#72d650;stroke-width:8.5px;stroke-linejoin:miter;stroke-miterlimit:10;"/><path d="M542.056,460.688c-0,-0 -2.631,39.787 -3.649,55.199" style="fill:none;stroke:#72d650;stroke-width:8.5px;"/></g><g><path d="M748.791,494.741l-19.371,74.868" style="fill:none;"/><path d="M752.488,551.092l-21.563,12.698l-12.698,-21.563" style="fill:none;stroke:#72d650;stroke-width:8.5px;stroke-linejoin:miter;stroke-miterlimit:10;"/><path d="M748.791,494.741c0,-0 -13.313,51.452 -17.866,69.049" style="fill:none;stroke:#72d650;stroke-width:8.5px;"/></g><circle cx="231.478" cy="488.239" r="14.312" style="fill:none;stroke:#72d650;stroke-width:5px;"/><circle cx="543.807" cy="359.521" r="14.312" style="fill:none;stroke:#72d650;stroke-width:5px;"/><circle cx="769.507" cy="455.918" r="14.312" style="fill:none;stroke:#72d650;stroke-width:5px;"/><circle cx="769.507" cy="455.918" r="14.312" style="fill:#72d650;"/><path d="M779.018,482.26l16.075,32.149l-32.149,-0l16.074,-32.149Z" style="fill:#72d650;"/><path d="M717.871,425.151l16.074,32.149l-32.149,-0l16.075,-32.149Z" style="fill:#72d650;"/><path d="M506.375,380.871l16.074,32.149l-32.148,-0l16.074,-32.149Z" style="fill:none;stroke:#72d650;stroke-width:5px;"/><path d="M286.931,466.997l16.074,32.149l-32.148,-0l16.074,-32.149Z" style="fill:none;stroke:#72d650;stroke-width:5px;"/></g><g id="Cloud"><path d="M668.389,470.416c-2.466,0.319 -4.98,0.483 -7.531,0.483c-32.157,0 -58.263,-26.107 -58.263,-58.263c-0,-27.458 19.035,-50.505 44.617,-56.654c6.385,-37.661 43.205,-66.583 87.613,-66.583c44.483,0 81.353,29.02 87.644,66.776c1.962,-0.2 3.953,-0.302 5.967,-0.302c32.156,-0 58.263,26.107 58.263,58.263c0,32.156 -26.107,58.263 -58.263,58.263c-3.84,-0 -7.593,-0.372 -11.227,-1.083c-6.046,-15.297 -16.689,-68.916 -76.486,-68.97c-45.357,-0.041 -68.53,51.85 -72.334,68.07Z" style="fill:url(#_Linear1);stroke:#fff;stroke-width:13px;"/><path d="M195.717,441.059c-2.445,0.317 -4.939,0.48 -7.47,0.48c-31.897,-0 -57.793,-25.896 -57.793,-57.793c-0,-27.237 18.881,-50.098 44.258,-56.197c6.332,-37.358 42.856,-66.046 86.905,-66.046c44.125,0 80.697,28.786 86.938,66.237c1.946,-0.198 3.92,-0.3 5.918,-0.3c31.897,0 57.793,25.896 57.793,57.793c0,31.897 -25.896,57.793 -57.793,57.793c-3.808,0 -7.532,-0.369 -11.136,-1.074c-5.998,-15.173 -16.555,-68.36 -75.869,-68.414c-44.991,-0.04 -67.977,51.432 -71.751,67.521Z" style="fill:url(#_Linear2);stroke:#fff;stroke-width:13px;"/><path d="M409.836,390.36c-2.934,0.38 -5.925,0.576 -8.962,0.576c-38.267,-0 -69.334,-31.068 -69.334,-69.334c-0,-32.676 22.652,-60.102 53.096,-67.419c7.597,-44.818 51.414,-79.235 104.26,-79.235c52.936,-0 96.811,34.534 104.298,79.464c2.335,-0.238 4.704,-0.36 7.101,-0.36c38.266,0 69.334,31.068 69.334,69.334c-0,38.267 -31.068,69.334 -69.334,69.334c-4.57,0 -9.037,-0.443 -13.36,-1.288c-7.196,-18.204 -19.861,-82.012 -91.02,-82.076c-53.975,-0.049 -81.552,61.702 -86.079,81.004Z" style="fill:url(#_Linear3);stroke:#fff;stroke-width:13px;"/></g><defs><linearGradient id="_Linear1" x1="0" y1="0" x2="1" y2="0" gradientUnits="userSpaceOnUse" gradientTransform="matrix(185.995,151.997,-151.997,185.995,684.227,313.817)"><stop offset="0" style="stop-color:#4cbafc;stop-opacity:1"/><stop offset="1" style="stop-color:#0085d3;stop-opacity:1"/></linearGradient><linearGradient id="_Linear2" x1="0" y1="0" x2="1" y2="0" gradientUnits="userSpaceOnUse" gradientTransform="matrix(184.494,150.771,-150.771,184.494,211.428,285.723)"><stop offset="0" style="stop-color:#4cbafc;stop-opacity:1"/><stop offset="1" style="stop-color:#0085d3;stop-opacity:1"/></linearGradient><linearGradient id="_Linear3" x1="0" y1="0" x2="1" y2="0" gradientUnits="userSpaceOnUse" gradientTransform="matrix(221.336,180.879,-180.879,221.336,428.683,204.005)"><stop offset="0" style="stop-color:#4cbafc;stop-opacity:1"/><stop offset="1" style="stop-color:#0085d3;stop-opacity:1"/></linearGradient></defs></svg>